<svg version="1.1" xmlns="http://www.w3.org/2000/svg" style="display: block;" viewBox="0 0 4000 4000" width="4000" height="4000" preserveAspectRatio="none">
<path transform="translate(0,0)" fill="rgb(255,1,0)" d="M 1951.37 0 L 2048.37 0 L 2050.31 0.271945 C 2079.98 4.14639 2130.98 4.18638 2163.7 6.84887 C 2238.94 13.1485 2313.79 23.5436 2387.9 37.9878 C 2860.72 131.545 3283.83 392.757 3579.34 773.534 C 3785.2 1037.84 3921.01 1349.83 3974.19 1680.59 C 3983.3 1737.45 3990.01 1794.66 3994.32 1852.09 C 3995.37 1867.56 3997.86 1940.87 4000 1951.63 L 4000 2048.63 L 3999.73 2050.53 C 3995.84 2079.86 3995.82 2131.35 3993.17 2163.88 C 3986.78 2240.11 3976.2 2315.93 3961.47 2391 C 3867.12 2864.12 3604.93 3287.19 3223.22 3582.22 C 2961.9 3784.88 2654.19 3919.24 2327.92 3973.14 C 2272.1 3982.29 2215.94 3989.17 2159.57 3993.78 C 2141.08 3995.13 2073.15 3997.34 2060.09 4000 L 1939.67 4000 C 1929.41 3997.86 1858.65 3994.99 1842.55 3993.82 C 1785.54 3989.46 1728.74 3982.6 1672.33 3973.24 C 1346.93 3919.58 1039.97 3785.9 779.048 3584.21 C 398.541 3291.11 136.227 2870.85 40.0589 2400.27 C 25.2009 2326.58 14.3945 2252.14 7.68823 2177.27 C 4.89087 2144.61 4.2627 2091.74 0.275683 2062.21 L 0 2060.29 L 0 1939.83 C 2.16179 1929.36 5.05024 1857.59 6.1982 1842.08 C 10.6408 1785.18 17.529 1728.49 26.8437 1672.18 C 80.7331 1345.92 215.069 1038.22 417.711 776.904 C 712.952 394.788 1136.51 132.437 1610.14 38.3206 C 1683.79 23.8701 1758.18 13.4653 1832.98 7.15283 C 1864.81 4.64408 1921.13 4.03959 1949.47 0.271556 L 1951.37 0 z"></path>
<path transform="translate(0,0)" fill="rgb(254,254,254)" d="M 962.197 758.606 C 997.213 755.422 1032.95 760.137 1066.21 771.546 C 1164.36 805.218 1197.56 909.809 1237.91 996.462 L 1353.89 1245.54 L 1769.09 2136.8 L 675.504 2136.78 L 817.926 1835.77 L 1298.59 1835.76 L 1201.25 1627.8 L 1076.92 1362.18 C 1055.77 1317.02 1034.99 1271.61 1013.09 1226.79 C 1003.81 1207.82 993.197 1196.7 970.976 1203.65 C 961.93 1206.47 959.247 1211.59 955.135 1219.83 C 938.227 1253.69 922.588 1288.31 906.576 1322.62 L 814.151 1520.68 L 526.661 2136.8 L 195.669 2136.8 L 617.896 1230.48 L 726.013 998.329 C 782.06 878.009 810.536 773.172 962.197 758.606 z"></path>
<path transform="translate(0,0)" fill="rgb(254,254,254)" d="M 2944.39 758.59 C 2977.27 755.327 3017.97 760.398 3048.92 771.899 C 3088.09 786.617 3121.75 813.094 3145.28 847.698 C 3169.64 883.478 3200.49 955.43 3220.37 998.093 L 3336.71 1247.94 L 3750.66 2136.79 L 2657.34 2136.8 C 2702.17 2037.49 2752.83 1934.67 2799.61 1835.76 L 3280.21 1835.75 L 3184.06 1630.15 L 3054.54 1353.26 C 3042.73 1328.02 2995.32 1217.05 2976.75 1203.87 C 2952.84 1198.13 2944.84 1203.16 2934.59 1224.26 C 2917.56 1259.34 2901.28 1294.74 2884.79 1330.07 L 2792.75 1527.29 L 2508.35 2136.79 L 2177.28 2136.8 L 2605.28 1218.26 L 2706.19 1001.59 C 2762.9 879.863 2791.2 773.173 2944.39 758.59 z"></path>
<path transform="translate(0,0)" fill="rgb(254,254,254)" d="M 1170.56 779.953 C 1280.08 776.689 1405.39 779.711 1516.2 779.711 C 1551.66 851.838 1586.58 930.073 1620.76 1003.18 L 1824.48 1438.95 L 1901.52 1604.11 C 1915.92 1635.05 1930.26 1665.45 1945.19 1696.43 C 1955.43 1717.66 1984.68 1723.19 1995.36 1701.52 C 2011.94 1667.89 2027.74 1633 2043.68 1598.95 L 2137.09 1399.7 L 2427.96 779.735 L 2774.64 779.719 L 2631.95 1085.41 L 2198.56 2013.91 C 2167.79 2078.6 2131.48 2119.17 2061.86 2144.26 C 1993.63 2167.06 1914.5 2163.68 1849.81 2132.64 C 1776.93 2097.67 1754.32 2036.13 1722.38 1967.57 L 1657.69 1828.5 L 1451.15 1384.63 L 1261.37 976.663 L 1202.05 849.737 C 1193.43 831.285 1176.62 797.814 1170.56 779.953 z"></path>
<path transform="translate(0,0)" fill="rgb(254,254,254)" d="M 863.02 2268.89 C 1003.23 2253.88 1129.15 2355.13 1144.6 2495.29 C 1160.04 2635.45 1059.18 2761.69 919.071 2777.57 C 778.34 2793.52 651.419 2692.12 635.907 2551.34 C 620.395 2410.56 722.191 2283.96 863.02 2268.89 z"></path>
<path transform="translate(0,0)" fill="rgb(255,1,0)" d="M 872.892 2367.64 C 897.087 2366.1 921.963 2366.59 943.213 2380.38 C 1015.87 2427.56 1014.83 2564.73 975.397 2632.36 C 959.907 2658.92 936.689 2672.58 908.341 2679.32 C 839.125 2684.2 799.165 2649.6 785.205 2584.46 C 768.334 2505.74 777.659 2387.89 872.892 2367.64 z"></path>
<path transform="translate(0,0)" fill="rgb(254,254,254)" d="M 2935.63 2268.87 C 3075.85 2253.94 3201.73 2355.28 3217.08 2495.46 C 3232.43 2635.64 3131.47 2761.82 2991.33 2777.59 C 2850.6 2793.43 2723.77 2691.95 2708.36 2551.17 C 2692.94 2410.39 2794.8 2283.87 2935.63 2268.87 z"></path>
<path transform="translate(0,0)" fill="rgb(255,1,0)" d="M 2945.12 2367.66 C 3087.4 2354.85 3097.24 2541.76 3047.5 2632.94 C 3033.32 2658.93 3008.34 2672.99 2980.13 2679.42 C 2955.91 2681.03 2931.58 2680.53 2910.27 2666.57 C 2837.01 2618.59 2837.25 2479.98 2878.38 2411.85 C 2893.98 2386.02 2917.38 2373.73 2945.12 2367.66 z"></path>
<path transform="translate(0,0)" fill="rgb(254,254,254)" d="M 3284.11 2277.97 L 3450.79 2277.96 L 3616.88 2611.36 L 3616.15 2277.95 L 3735.85 2277.95 L 3735.81 2598.8 C 3735.81 2654.22 3737.16 2714.29 3735.5 2769.2 L 3573.34 2769.18 L 3401.92 2434.57 L 3404.34 2769.19 L 3284.08 2769.2 L 3284.11 2277.97 z"></path>
<path transform="translate(0,0)" fill="rgb(254,254,254)" d="M 1893.32 2277.97 L 2024.03 2277.97 L 2024.07 2375.98 L 2024.2 2508.98 C 2024.24 2582.8 2031.8 2666.22 1973.89 2722.38 C 1896.44 2797.49 1719.26 2797.03 1642.85 2721.44 C 1583.12 2662.36 1593.66 2566.59 1593.65 2489.29 L 1593.91 2277.95 L 1724.51 2277.96 L 1724.37 2480.71 C 1724.36 2550.21 1707.35 2678.97 1807.61 2680.47 C 1910.26 2682.01 1893.42 2549.81 1893.42 2480.63 L 1893.32 2277.97 z"></path>
<path transform="translate(0,0)" fill="rgb(254,254,254)" d="M 405.292 2270.31 C 459.815 2267.39 506.236 2271.92 558.183 2287.82 L 549.882 2389 C 520.068 2376.47 487.688 2368 455.168 2367.09 C 432.716 2366.52 379.235 2365.16 363.671 2384.89 C 322.973 2437.47 401.908 2458.43 439.035 2469.22 C 516.229 2491.64 582.73 2517.87 584.587 2610.13 C 587.204 2740.19 486.777 2775.88 371.505 2777.44 C 317.547 2777.81 273.66 2771.11 222.389 2756.41 C 226.935 2721.63 230.075 2683.25 233.679 2648.11 C 276.164 2670.02 449.275 2720.65 449.211 2627.27 C 448.569 2614.86 437.052 2600.73 427.036 2594.91 C 347.259 2548.55 228.08 2555 218.338 2436.4 C 208.528 2316.96 303.112 2278.38 405.292 2270.31 z"></path>
<path transform="translate(0,0)" fill="rgb(254,254,254)" d="M 2072.25 2277.96 L 2444.96 2277.96 L 2444.95 2375.09 L 2323.94 2375.11 L 2323.97 2648.73 L 2323.94 2769.18 L 2193.13 2769.19 L 2193.13 2375.1 L 2072.07 2375.11 L 2072.25 2277.96 z"></path>
<path transform="translate(0,0)" fill="rgb(254,254,254)" d="M 1209.51 2277.95 L 1340.22 2277.96 L 1340.22 2671.97 L 1542.97 2671.98 L 1542.85 2769.2 L 1209.47 2769.19 L 1209.51 2277.95 z"></path>
<path transform="translate(0,0)" fill="rgb(254,254,254)" d="M 2506.14 2277.94 L 2636.84 2277.95 L 2636.73 2769.2 L 2506.01 2769.19 L 2506.14 2277.94 z"></path>
</svg>